<svg>
    <symbol id="pointer" viewBox="0 0 68 25" fill="none" xmlns="http://www.w3.org/2000/svg">
        <path d="M4.35994 16.9359C2.03287 16.5879 0.310913 14.5893 0.310912 12.2363V12.2363C0.310912 9.88339 2.03287 7.88475 4.35993 7.53673L53.2367 0.226939C60.5767 -0.870808 67.1757 4.81464 67.1757 12.2363V12.2363C67.1757 19.658 60.5767 25.3435 53.2367 24.2457L4.35994 16.9359Z" fill="#FFD439"/>
    </symbol>

    <symbol id="ticks" height="100%" viewBox="0 0 1510 1510" fill="none" xmlns="http://www.w3.org/2000/svg">
        <rect x="673.521" y="18.9901" width="8.1881" height="66.8648" rx="4.09405" transform="rotate(-6 673.521 18.9901)" fill="white"/>
        <rect x="821.342" y="1425.41" width="8.1881" height="66.8648" rx="4.09405" transform="rotate(-6 821.342 1425.41)" fill="white"/>
        <rect x="597.031" y="31.5387" width="8.1881" height="66.8648" rx="4.09405" transform="rotate(-12 597.031 31.5387)" fill="white"/>
        <rect x="891.053" y="1414.8" width="8.1881" height="66.8648" rx="4.09405" transform="rotate(-12 891.053 1414.8)" fill="white"/>
        <rect x="522.272" y="52.014" width="8.1881" height="66.8648" rx="4.09405" transform="rotate(-18 522.272 52.014)" fill="white"/>
        <rect x="959.274" y="1396.97" width="8.1881" height="66.8648" rx="4.09405" transform="rotate(-18 959.274 1396.97)" fill="white"/>
        <rect x="450.063" y="80.1918" width="8.1881" height="66.8648" rx="4.09405" transform="rotate(-24 450.063 80.1918)" fill="white"/>
        <rect x="1025.26" y="1372.1" width="8.1881" height="66.8648" rx="4.09405" transform="rotate(-24 1025.26 1372.1)" fill="white"/>
        <rect x="316.421" y="158.338" width="8.1881" height="66.8648" rx="4.09405" transform="rotate(-36 316.421 158.338)" fill="white"/>
        <rect x="1147.65" y="1302.42" width="8.1881" height="66.8648" rx="4.09405" transform="rotate(-36 1147.65 1302.42)" fill="white"/>
        <rect x="256.453" y="207.45" width="8.1881" height="66.8648" rx="4.09405" transform="rotate(-42 256.453 207.45)" fill="white"/>
        <rect x="1202.72" y="1258.38" width="8.1881" height="66.8648" rx="4.09405" transform="rotate(-42 1202.72 1258.38)" fill="white"/>
        <rect x="201.947" y="262.562" width="8.1881" height="66.8648" rx="4.09405" transform="rotate(-48 201.947 262.562)" fill="white"/>
        <rect x="1252.88" y="1208.83" width="8.1881" height="66.8648" rx="4.09405" transform="rotate(-48 1252.88 1208.83)" fill="white"/>
        <rect x="153.501" y="323.069" width="8.1881" height="66.8648" rx="4.09405" transform="rotate(-54 153.501 323.069)" fill="white"/>
        <rect x="1297.59" y="1154.3" width="8.1881" height="66.8648" rx="4.09405" transform="rotate(-54 1297.59 1154.3)" fill="white"/>
        <rect x="76.8374" y="457.567" width="8.1881" height="66.8648" rx="4.09405" transform="rotate(-66 76.8374 457.567)" fill="white"/>
        <rect x="1368.74" y="1032.76" width="8.1881" height="66.8648" rx="4.09405" transform="rotate(-66 1368.74 1032.76)" fill="white"/>
        <rect x="49.46" y="530.083" width="8.1881" height="66.8648" rx="4.09405" transform="rotate(-72 49.46 530.083)" fill="white"/>
        <rect x="1394.41" y="967.085" width="8.1881" height="66.8648" rx="4.09405" transform="rotate(-72 1394.41 967.085)" fill="white"/>
        <rect x="29.8125" y="605.064" width="8.1881" height="66.8648" rx="4.09405" transform="rotate(-78 29.8125 605.064)" fill="white"/>
        <rect x="1413.08" y="899.086" width="8.1881" height="66.8648" rx="4.09405" transform="rotate(-78 1413.08 899.086)" fill="white"/>
        <rect x="18.1104" y="681.688" width="8.1881" height="66.8648" rx="4.09405" transform="rotate(-84 18.1104 681.688)" fill="white"/>
        <rect x="1424.53" y="829.509" width="8.1881" height="66.8648" rx="4.09405" transform="rotate(-84 1424.53 829.509)" fill="white"/>
        <rect x="18.9658" y="836.499" width="8.1881" height="66.8648" rx="4.09405" transform="rotate(-96 18.9658 836.499)" fill="white"/>
        <rect x="1425.39" y="688.678" width="8.1881" height="66.8648" rx="4.09405" transform="rotate(-96 1425.39 688.678)" fill="white"/>
        <rect x="31.5146" y="912.989" width="8.1881" height="66.8648" rx="4.09405" transform="rotate(-102 31.5146 912.989)" fill="white"/>
        <rect x="1414.78" y="618.966" width="8.1881" height="66.8648" rx="4.09405" transform="rotate(-102 1414.78 618.966)" fill="white"/>
        <rect x="51.9902" y="987.748" width="8.1881" height="66.8648" rx="4.09405" transform="rotate(-108 51.9902 987.748)" fill="white"/>
        <rect x="1396.94" y="550.745" width="8.1881" height="66.8648" rx="4.09405" transform="rotate(-108 1396.94 550.745)" fill="white"/>
        <rect x="80.168" y="1059.96" width="8.1881" height="66.8648" rx="4.09405" transform="rotate(-114 80.168 1059.96)" fill="white"/>
        <rect x="1372.07" y="484.763" width="8.1881" height="66.8648" rx="4.09405" transform="rotate(-114 1372.07 484.763)" fill="white"/>
        <rect x="158.314" y="1193.6" width="8.1881" height="66.8648" rx="4.09405" transform="rotate(-126 158.314 1193.6)" fill="white"/>
        <rect x="1302.4" y="362.372" width="8.1881" height="66.8648" rx="4.09405" transform="rotate(-126 1302.4 362.372)" fill="white"/>
        <rect x="207.427" y="1253.57" width="8.1881" height="66.8648" rx="4.09405" transform="rotate(-132 207.427 1253.57)" fill="white"/>
        <rect x="1258.36" y="307.304" width="8.1881" height="66.8648" rx="4.09405" transform="rotate(-132 1258.36 307.304)" fill="white"/>
        <rect x="262.538" y="1308.07" width="8.1881" height="66.8648" rx="4.09405" transform="rotate(-138 262.538 1308.07)" fill="white"/>
        <rect x="1208.8" y="257.141" width="8.1881" height="66.8648" rx="4.09405" transform="rotate(-138 1208.8 257.141)" fill="white"/>
        <rect x="323.045" y="1356.52" width="8.1881" height="66.8648" rx="4.09405" transform="rotate(-144 323.045 1356.52)" fill="white"/>
        <rect x="1154.27" y="212.433" width="8.1881" height="66.8648" rx="4.09405" transform="rotate(-144 1154.27 212.433)" fill="white"/>
        <rect x="457.543" y="1433.18" width="8.1881" height="66.8648" rx="4.09405" transform="rotate(-156 457.543 1433.18)" fill="white"/>
        <rect x="1032.74" y="141.276" width="8.1881" height="66.8648" rx="4.09405" transform="rotate(-156 1032.74 141.276)" fill="white"/>
        <rect x="530.059" y="1460.56" width="8.1881" height="66.8648" rx="4.09405" transform="rotate(-162 530.059 1460.56)" fill="white"/>
        <rect x="967.061" y="115.607" width="8.1881" height="66.8648" rx="4.09405" transform="rotate(-162 967.061 115.607)" fill="white"/>
        <rect x="605.041" y="1480.21" width="8.1881" height="66.8648" rx="4.09405" transform="rotate(-168 605.041 1480.21)" fill="white"/>
        <rect x="899.062" y="96.9425" width="8.1881" height="66.8648" rx="4.09405" transform="rotate(-168 899.062 96.9425)" fill="white"/>
        <rect x="681.665" y="1491.91" width="8.1881" height="66.8648" rx="4.09405" transform="rotate(-174 681.665 1491.91)" fill="white"/>
        <rect x="829.485" y="85.4889" width="8.1881" height="66.8648" rx="4.09405" transform="rotate(-174 829.485 85.4889)" fill="white"/>
        <rect x="750.904" y="0.108154" width="8.1881" height="82.4369" rx="4.09405" fill="#FFD339"/>
        <rect x="750.904" y="1427.5" width="8.1881" height="82.4368" rx="4.09405" fill="#FFD339"/>
        <rect x="373.995" y="103.294" width="8.1881" height="82.4369" rx="4.09405" transform="rotate(-30 373.995 103.294)" fill="#FFD339"/>
        <rect x="1087.69" y="1339.45" width="8.1881" height="82.4368" rx="4.09405" transform="rotate(-30 1087.69 1339.45)" fill="#FFD339"/>
        <rect x="99.1763" y="381.111" width="8.1881" height="82.4369" rx="4.09405" transform="rotate(-60 99.1763 381.111)" fill="#FFD339"/>
        <rect x="1335.33" y="1094.81" width="8.1881" height="82.4368" rx="4.09405" transform="rotate(-60 1335.33 1094.81)" fill="#FFD339"/>
        <rect x="0.0839844" y="759.116" width="8.1881" height="82.4369" rx="4.09405" transform="rotate(-90 0.0839844 759.116)" fill="#FFD339"/>
        <rect x="1427.47" y="759.116" width="8.1881" height="82.4368" rx="4.09405" transform="rotate(-90 1427.47 759.116)" fill="#FFD339"/>
        <rect x="103.271" y="1136.02" width="8.1881" height="82.4369" rx="4.09405" transform="rotate(-120 103.271 1136.02)" fill="#FFD339"/>
        <rect x="1339.43" y="422.329" width="8.1881" height="82.4368" rx="4.09405" transform="rotate(-120 1339.43 422.329)" fill="#FFD339"/>
        <rect x="381.086" y="1410.84" width="8.1881" height="82.4369" rx="4.09405" transform="rotate(-150 381.086 1410.84)" fill="#FFD339"/>
        <rect x="1094.78" y="174.687" width="8.1881" height="82.4368" rx="4.09405" transform="rotate(-150 1094.78 174.687)" fill="#FFD339"/>
    </symbol>
</svg>